<?xml version="1.0" standalone="no"?>
<!DOCTYPE svg PUBLIC "-//W3C//DTD SVG 20010904//EN"
 "http://www.w3.org/TR/2001/REC-SVG-20010904/DTD/svg10.dtd">
<svg version="1.0" xmlns="http://www.w3.org/2000/svg"
 width="959.000000pt" height="1280.000000pt" viewBox="0 0 959.000000 1280.000000"
 preserveAspectRatio="xMidYMid meet">
<metadata>
Created by potrace 1.15, written by Peter Selinger 2001-2017
</metadata>
<g transform="translate(0.000000,1280.000000) scale(0.100000,-0.100000)"
fill="#000000" stroke="none">
<path d="M5740 12793 c-315 -16 -675 -71 -1059 -159 l-153 -36 -174 16 c-1241
116 -2270 -197 -3051 -929 -305 -287 -582 -664 -788 -1075 -442 -881 -610
-1981 -460 -3000 8 -52 19 -162 25 -245 23 -316 81 -619 191 -1005 451 -1577
1668 -3739 2895 -5145 306 -351 708 -728 968 -910 544 -379 913 -398 1476 -76
1133 646 2610 2687 3432 4741 428 1068 604 2010 495 2642 -11 60 -11 81 0 118
34 117 47 281 47 605 0 480 -45 886 -150 1360 -232 1039 -688 1862 -1331 2397
-611 508 -1428 751 -2363 701z m60 -968 c1125 -70 1854 -289 2357 -708 456
-380 594 -797 698 -2112 54 -680 72 -1384 45 -1745 -45 -619 -179 -997 -437
-1241 -187 -176 -409 -269 -823 -344 -382 -69 -672 -183 -725 -285 -42 -81 51
-215 159 -227 101 -11 126 -45 107 -141 -21 -107 -127 -300 -226 -412 -110
-125 -219 -181 -408 -211 -105 -16 -407 -6 -614 20 -236 31 -1357 221 -1367
232 -2 2 -9 407 -15 899 -21 1586 -39 1989 -106 2375 -56 324 -138 513 -303
705 -226 261 -265 316 -245 349 20 33 62 42 246 50 245 12 279 29 236 118 -34
70 -337 363 -486 470 -529 379 -1530 543 -2120 347 -117 -39 -191 -82 -259
-149 -67 -67 -104 -143 -104 -218 0 -112 117 -147 305 -90 243 73 583 -5 986
-227 272 -150 495 -317 715 -535 167 -165 253 -274 314 -398 68 -139 72 -230
10 -291 -30 -30 -33 -31 -123 -30 -115 1 -175 22 -375 136 -79 44 -189 100
-245 123 -433 178 -901 149 -1262 -80 -76 -48 -270 -243 -358 -360 -91 -121
-127 -195 -127 -258 0 -85 60 -126 232 -158 101 -19 576 -22 928 -5 184 9 477
21 651 27 504 19 660 -7 736 -120 41 -61 48 -105 48 -321 0 -177 -3 -220 -23
-314 -56 -261 -148 -453 -294 -614 -112 -123 -195 -269 -242 -422 -85 -279
-26 -500 134 -500 97 0 216 94 280 221 40 79 48 89 65 83 21 -9 42 -71 55
-169 17 -128 9 -473 -13 -541 -30 -91 -92 -152 -184 -181 -65 -21 -286 -29
-364 -14 -397 79 -930 482 -1021 774 -26 83 -24 95 26 143 53 51 135 92 281
142 121 41 137 58 72 79 -65 22 -154 32 -412 48 -406 24 -580 62 -783 170
-277 148 -453 423 -537 839 -59 297 -78 552 -78 1076 1 1311 153 2210 478
2837 124 238 241 398 421 574 275 268 497 372 949 448 308 51 872 99 1565 131
124 6 248 12 275 13 179 11 1096 5 1305 -8z m-4345 -6575 c199 -164 320 -276
635 -585 157 -154 326 -310 375 -347 208 -155 438 -242 730 -277 472 -57 626
-55 1135 10 430 55 474 60 670 66 357 11 621 -31 915 -146 76 -29 87 -31 220
-31 338 0 594 50 788 153 171 91 306 211 607 537 357 387 549 552 615 526 46
-17 -9 -188 -131 -410 -135 -244 -261 -439 -639 -986 -386 -559 -677 -1004
-790 -1210 -117 -212 -288 -442 -554 -745 -118 -135 -753 -816 -757 -812 -1 1
22 128 52 282 77 399 86 461 85 625 0 228 -40 402 -131 577 -55 105 -204 305
-283 380 -108 102 -159 81 -332 -137 -151 -190 -241 -355 -314 -575 -53 -159
-69 -242 -82 -410 -17 -233 -35 -285 -97 -285 -70 0 -223 123 -482 387 -672
682 -1145 1246 -1527 1818 -202 303 -314 514 -395 739 -115 322 -249 591 -365
734 -19 23 -66 67 -104 98 -38 30 -73 64 -79 75 -15 27 2 47 43 52 18 2 38 5
45 5 8 1 74 -48 147 -108z"/>
<path d="M7110 10000 c-549 -51 -1000 -178 -1275 -359 -84 -55 -188 -151 -254
-235 -132 -166 -122 -232 56 -354 215 -148 226 -207 59 -326 -119 -85 -203
-203 -213 -299 -5 -46 -2 -57 19 -82 89 -103 462 30 792 283 32 25 122 106
199 180 292 279 602 470 999 613 298 107 552 137 728 84 179 -54 295 -20 307
88 17 146 -135 273 -412 347 -176 47 -323 62 -625 65 -157 2 -328 -1 -380 -5z"/>
<path d="M7087 8399 c-471 -39 -976 -290 -1106 -550 -57 -113 -34 -233 52
-283 313 -182 1661 -220 2272 -65 193 49 295 129 295 232 0 91 -114 231 -275
339 -263 176 -605 293 -959 327 -120 12 -135 12 -279 0z"/>
<path d="M5564 5951 c-76 -19 -73 -45 14 -130 174 -171 493 -377 666 -430 115
-35 176 -22 176 40 0 91 -145 281 -290 379 -79 54 -210 116 -285 135 -61 16
-225 19 -281 6z"/>
</g>
</svg>
